<svg width="500" height="500" viewBox="0 0 500 500" fill="none" xmlns="http://www.w3.org/2000/svg">
<circle cx="250" cy="250" r="250" fill="#FFF382"/>
<g clip-path="url(#clip0)">
<path fill-rule="evenodd" clip-rule="evenodd" d="M296.443 152.992L373.874 298.602C377.129 304.574 379.167 311.131 379.872 317.896C380.577 324.66 379.933 331.497 377.979 338.011C376.025 344.525 372.799 350.587 368.487 355.846C364.176 361.106 358.864 365.458 352.86 368.652C346.855 371.846 340.277 373.818 333.506 374.453C326.735 375.089 319.905 374.376 313.411 372.355C306.918 370.335 300.889 367.047 295.674 362.682C290.458 358.317 286.16 352.961 283.028 346.925C283.028 346.925 237.927 262.384 226.422 240.271C223.856 235.199 220.224 230.741 215.775 227.203C211.326 223.664 206.165 221.129 200.646 219.77C195.126 218.411 189.378 218.26 183.795 219.328C178.212 220.396 172.925 222.658 168.297 225.958C167.873 226.416 167.285 226.686 166.661 226.71C166.037 226.734 165.43 226.509 164.972 226.085C164.515 225.661 164.244 225.072 164.22 224.448C164.197 223.825 164.422 223.217 164.846 222.76L206.587 151.243C211.204 143.33 217.85 136.793 225.839 132.308C233.827 127.822 242.869 125.552 252.029 125.73C261.189 125.908 270.135 128.529 277.943 133.322C285.751 138.114 292.138 144.905 296.443 152.992V152.992ZM176.42 374.192C187.611 374.192 198.551 370.874 207.856 364.656C217.161 358.439 224.413 349.602 228.696 339.263C232.979 328.923 234.099 317.546 231.916 306.57C229.733 295.594 224.344 285.512 216.43 277.599C208.517 269.686 198.435 264.297 187.459 262.113C176.483 259.93 165.106 261.051 154.767 265.333C144.428 269.616 135.59 276.868 129.373 286.173C123.156 295.478 119.837 306.418 119.837 317.609C119.843 332.614 125.807 347.003 136.417 357.613C147.027 368.223 161.415 374.186 176.42 374.192V374.192Z" fill="#1A1E22"/>
</g>
<defs>
<clipPath id="clip0">
<rect width="260.575" height="249.676" fill="white" transform="translate(119.714 125.12)"/>
</clipPath>
</defs>
</svg>
